<svg width="271" height="100" viewBox="0 0 271 100" fill="none" xmlns="http://www.w3.org/2000/svg">
<path d="M59.7463 72.3188C63.2363 85.6134 62.9763 103.51 79.7463 108.407C94.7863 112.805 104.966 100.061 107.596 85.4604" stroke="#FFAD9E" stroke-width="12" stroke-miterlimit="10" stroke-linejoin="round"/>
<path d="M103.916 84.1953C102.706 82.8179 100.946 82.1955 101.516 80.0835" stroke="#FFAD9E" stroke-width="4" stroke-miterlimit="10" stroke-linecap="round" stroke-linejoin="round"/>
<path d="M111.926 86.5521C115.326 86.5521 117.646 85.2053 117.646 85.2053" stroke="#FFAD9E" stroke-width="4" stroke-miterlimit="10" stroke-linecap="round" stroke-linejoin="round"/>
<path d="M148.756 81.3791H96.5063C95.4063 81.3791 94.5063 80.4609 94.5063 79.3385V56.1572H150.756V79.3385C150.756 80.4609 149.856 81.3791 148.756 81.3791Z" fill="white"/>
<path d="M148.756 81.3794C149.856 81.3794 150.756 80.4612 150.756 79.3388V73.4517L142.986 81.3794H148.756Z" fill="#DBDBDB"/>
<path d="M131.926 81.3793H140.406L150.756 70.8192V62.167L131.926 81.3793Z" fill="#DBDBDB"/>
<path d="M150.756 56.1472V59.5346L129.346 81.3793H120.856L145.576 56.1574L150.756 56.1472Z" fill="#DBDBDB"/>
<path d="M134.506 56.1572L109.796 81.3791H118.286L143.006 56.1572H134.506Z" fill="#DBDBDB"/>
<path d="M123.446 56.1572L98.7363 81.3791H107.226L131.936 56.1572H123.446Z" fill="#DBDBDB"/>
<path d="M120.876 56.1572L96.1663 81.3587L95.8763 81.2669C95.0563 80.9812 94.5063 80.2058 94.5063 79.3385V74.4003L112.386 56.1572H120.876Z" fill="#DBDBDB"/>
<path d="M109.816 56.1572L94.5063 71.7781V63.1157L101.326 56.1572H109.816Z" fill="#DBDBDB"/>
<path d="M98.7463 56.1574L94.5063 60.4835V56.1472L98.7463 56.1574Z" fill="#DBDBDB"/>
<path d="M152.636 45.5767V54.1167C152.636 55.239 151.736 56.1573 150.636 56.1573H94.6363C93.5263 56.1573 92.6363 55.239 92.6363 54.1167V45.5767C92.6363 44.4544 93.5263 43.5361 94.6363 43.5361H150.636C151.736 43.5361 152.636 44.4544 152.636 45.5767Z" fill="white"/>
<path d="M152.636 48.9539V54.1166C152.636 55.1981 151.806 56.0858 150.756 56.1572H145.576L152.636 48.9539Z" fill="#DBDBDB"/>
<path d="M143.006 56.1573L152.636 46.3318V45.5767C152.636 44.4544 151.736 43.5361 150.636 43.5361H146.876L134.506 56.1573H143.006Z" fill="#DBDBDB"/>
<path d="M131.936 56.1573L144.306 43.5361H135.816L123.446 56.1573H131.936Z" fill="#DBDBDB"/>
<path d="M133.246 43.5361L120.876 56.1573H112.386L124.756 43.5361H133.246Z" fill="#DBDBDB"/>
<path d="M109.816 56.1573L122.186 43.5361H113.686L101.326 56.1573H109.816Z" fill="#DBDBDB"/>
<path d="M111.116 43.5361L98.7463 56.1573H94.5063C93.4663 56.0859 92.6363 55.1982 92.6363 54.1167V53.7392L102.626 43.5361H111.116Z" fill="#DBDBDB"/>
<path d="M94.6263 43.5461C93.5263 43.5461 92.6263 44.4644 92.6263 45.5868V51.1168L100.046 43.5461H94.6263Z" fill="#DBDBDB"/>
<path d="M122.636 43.1995C122.956 43.9953 125.186 49.3723 131.066 51.3619C138.116 53.7494 143.906 49.0662 144.286 48.7499" stroke="#252729" stroke-miterlimit="10" stroke-linecap="round" stroke-linejoin="round"/>
<path d="M122.636 43.1995C122.116 44.1892 119.856 48.2908 115.016 49.8825C110.336 51.4231 105.046 50.0355 101.266 46.3216" stroke="#252729" stroke-miterlimit="10" stroke-linecap="round" stroke-linejoin="round"/>
<path d="M122.636 43.1995C122.636 43.1995 116.506 43.9035 112.426 40.5671C109.216 37.9347 108.826 35.0371 110.326 32.6394C111.816 30.2621 115.196 30.2315 118.356 33.3638C122.116 37.0981 122.636 43.1995 122.636 43.1995Z" stroke="#252729" stroke-miterlimit="10"/>
<path d="M134.106 41.7589C128.826 44.5852 122.636 43.2077 122.636 43.2077C122.636 43.2077 124.246 36.9227 128.596 33.0965C132.536 29.6377 137.106 30.9641 138.426 33.7495C139.326 35.6269 139.186 39.0347 134.106 41.7589Z" stroke="#252729" stroke-miterlimit="10"/>
<path d="M122.626 81.3793V43.5464" stroke="#252729" stroke-miterlimit="10"/>
<path d="M107.596 85.4604C108.046 82.9607 116.316 84.1953 116.906 82.0322" stroke="#FFAD9E" stroke-width="4.2" stroke-miterlimit="10" stroke-linecap="round" stroke-linejoin="round"/>
<path d="M19.7063 68.1868C19.7063 68.1868 6.1763 112.723 9.0763 151.24" stroke="#FFAD9E" stroke-width="12" stroke-miterlimit="10" stroke-linejoin="round"/>
<path d="M58.5063 187.95C56.9963 173.421 41.1263 172.554 41.1263 172.554C54.1663 126.12 34.2863 120.947 39.3863 81.0631C34.3663 79.7775 29.3563 78.4409 24.3063 77.2676C19.1763 128.497 38.5763 132.905 18.1963 187.46C17.6963 188.797 18.6663 190.225 20.0663 190.225H56.5263C57.7163 190.225 58.6363 189.164 58.5063 187.95Z" fill="#FF816B"/>
<path d="M78.9063 187.164H59.9263C58.5063 176.502 49.7963 172.86 44.7763 171.625C56.9363 128.772 37.0963 121.12 41.8063 74.2065C46.8463 75.3799 51.8563 76.7165 56.8863 78.0021C51.7863 117.876 76.5563 123.059 63.5163 169.493C63.5163 169.493 79.3863 170.35 80.8963 184.879C81.0263 186.093 80.1063 187.164 78.9063 187.164Z" fill="#FF816B"/>
<path d="M84.8763 82.073C84.8763 82.0934 84.8763 82.124 84.8763 82.1444C84.8663 85.8889 81.7663 88.858 78.1063 88.858H6.7763C2.8663 88.858 -0.253704 85.4808 0.0162964 81.4914C0.836296 69.0437 2.8463 61.422 2.8463 61.422C4.2863 55.5757 7.2663 46.7909 13.7363 37.8632C20.9663 27.8846 28.9763 22.6913 30.9463 21.4567C33.4963 19.8548 35.9563 18.5795 38.3063 17.5592C39.1663 17.1817 40.4263 16.6613 42.4463 15.9369C45.0963 14.9982 48.8063 13.682 53.6263 12.7025C56.1363 12.1924 64.7863 10.4987 69.9163 12.7229C70.4963 12.978 71.7263 13.5188 72.8663 14.7533C73.7563 15.7226 74.5263 17.049 74.9363 18.8856C76.1163 24.0891 71.6963 28.3438 71.4263 28.5887C71.6763 28.6805 75.4663 30.2211 76.2063 33.9759C76.8763 37.3939 74.7363 41.1792 70.9263 42.6076C73.5263 45.6481 75.0863 48.1275 75.0863 52.474C75.0863 57.3204 73.1363 61.7077 69.9863 64.8605C78.3763 65.9216 84.8763 73.2168 84.8763 82.073Z" fill="#FF5537"/>
<path d="M69.6063 52.4434C69.4763 54.8513 68.8063 56.8613 67.8163 58.3816C66.0763 57.3715 63.9163 56.7899 61.5263 56.7899C59.5263 56.7899 57.6163 57.2694 55.9663 58.0959C54.4063 56.392 51.7463 55.4737 47.2263 56.0655C44.2163 56.4634 41.2463 57.2898 39.1463 58.9223C37.7063 57.7286 35.8663 57.0552 33.5963 57.2388C31.3363 57.4123 29.1063 58.1571 27.3963 59.3917C25.6763 57.749 24.8163 55.1472 24.4363 52.4434C23.7163 47.3725 28.2563 44.1789 32.9363 43.7708C35.7763 43.5259 37.8963 44.8319 39.3363 46.8725C40.8563 43.781 44.1163 42.3934 47.4463 42.0363C52.0763 41.5466 54.5163 43.8422 55.6163 47.148C57.0263 44.8523 59.3963 43.3423 61.9563 43.3423C66.4763 43.3423 69.8963 47.3521 69.6063 52.4434Z" fill="white"/>
<path d="M47.5563 54.7698C48.9663 54.7698 49.3163 53.2496 49.3163 51.4436C49.3163 49.6377 48.9763 48.1174 47.5563 48.1174C46.1463 48.1174 44.9463 49.6377 44.9463 51.4436C44.9563 53.2496 46.1463 54.7698 47.5563 54.7698Z" fill="#252729"/>
<path d="M62.2663 55.5655C63.6763 55.5655 64.0263 54.0452 64.0263 52.2393C64.0263 50.4333 63.6863 48.9131 62.2663 48.9131C60.8463 48.9131 59.6563 50.4333 59.6563 52.2393C59.6663 54.0452 60.8563 55.5655 62.2663 55.5655Z" fill="#252729"/>
<path d="M33.3063 54.5555C34.6363 54.5555 34.9563 53.1271 34.9563 51.4334C34.9563 49.7397 34.6363 48.3113 33.3063 48.3113C31.9763 48.3113 30.8563 49.7397 30.8563 51.4334C30.8563 53.1271 31.9763 54.5555 33.3063 54.5555Z" fill="#252729"/>
<path d="M28.7963 37.4042C29.7563 36.8736 31.1563 36.241 32.9563 35.8737C34.6263 35.5268 36.0763 35.537 37.1263 35.6288" stroke="#252729" stroke-miterlimit="10" stroke-linecap="round" stroke-linejoin="round"/>
<path d="M65.6163 37.4653C64.8663 36.9654 63.6663 36.3022 62.0663 35.9043C60.4363 35.5063 59.0563 35.5472 58.1563 35.639" stroke="#252729" stroke-miterlimit="10" stroke-linecap="round" stroke-linejoin="round"/>
<path d="M51.7663 33.4966C50.7763 33.1701 49.3663 32.813 47.6563 32.762C45.7663 32.711 44.2063 33.0477 43.1663 33.364" stroke="#252729" stroke-miterlimit="10" stroke-linecap="round" stroke-linejoin="round"/>
<path d="M45.4863 70.5334C45.4863 70.5334 32.6963 71.4007 20.7263 61.9119" stroke="#252729" stroke-miterlimit="10" stroke-linecap="round" stroke-linejoin="round"/>
<path d="M154.286 23.9158C151.136 22.8751 150.006 21.7221 148.986 18.5082C148.856 18.1102 148.296 18.1102 148.176 18.5082C147.156 21.7221 146.026 22.8751 142.876 23.9158C142.486 24.0484 142.486 24.6198 142.876 24.7422C146.026 25.7829 147.156 26.9359 148.176 30.1498C148.306 30.5477 148.866 30.5477 148.986 30.1498C150.006 26.9359 151.136 25.7829 154.286 24.7422C154.676 24.6096 154.676 24.0382 154.286 23.9158Z" fill="white"/>
<path d="M166.436 50.8314C164.426 50.1682 163.716 49.4336 163.066 47.393C162.986 47.1379 162.626 47.1379 162.546 47.393C161.896 49.4438 161.176 50.1682 159.176 50.8314C158.926 50.913 158.926 51.2803 159.176 51.362C161.186 52.0251 161.896 52.7598 162.546 54.8004C162.626 55.0555 162.986 55.0555 163.066 54.8004C163.716 52.7496 164.436 52.0251 166.436 51.362C166.686 51.2803 166.686 50.913 166.436 50.8314Z" fill="white"/>
<path d="M95.2663 35.2412C92.7263 34.4045 91.8263 33.4761 91.0063 30.8947C90.9063 30.5784 90.4563 30.5784 90.3563 30.8947C89.5363 33.4863 88.6263 34.4045 86.0963 35.2412C85.7863 35.3432 85.7863 35.8024 86.0963 35.9044C88.6363 36.741 89.5363 37.6695 90.3563 40.2509C90.4563 40.5672 90.9063 40.5672 91.0063 40.2509C91.8263 37.6593 92.7363 36.741 95.2663 35.9044C95.5763 35.8024 95.5763 35.3432 95.2663 35.2412Z" fill="white"/>
<path d="M162.356 14.3658C160.746 13.8353 160.176 13.2435 159.646 11.6008C159.586 11.3967 159.296 11.3967 159.236 11.6008C158.716 13.2435 158.136 13.8251 156.526 14.3658C156.326 14.427 156.326 14.7229 156.526 14.7842C158.136 15.3147 158.706 15.9065 159.236 17.5492C159.296 17.7532 159.586 17.7532 159.646 17.5492C160.166 15.9065 160.746 15.3249 162.356 14.7842C162.556 14.7229 162.556 14.4372 162.356 14.3658Z" fill="white"/>
<path d="M221.306 -14.427C222.356 -7.43794 235.066 -7.11144 238.746 -1.02023C240.836 2.4488 240.856 9.21342 230.756 23.8242L235.246 28.3849C237.226 26.0076 239.686 21.6611 241.996 15.978C243.526 12.2131 246.976 2.56104 242.086 -4.17297C242.086 -4.17297 240.106 -7.9685 222.736 -17.7124L222.256 -17.2227C221.546 -16.488 221.166 -15.4677 221.316 -14.4474C221.306 -14.4474 221.306 -14.4372 221.306 -14.427Z" fill="#FFD16D"/>
<path d="M176.266 34.9964C177.096 34.1393 177.096 33.2925 176.256 32.4456C175.416 31.5988 174.586 31.5988 173.756 32.4558C172.926 33.3129 172.926 34.1597 173.766 35.0066C174.606 35.8535 175.436 35.8432 176.266 34.9964Z" fill="#FFD16D"/>
<path d="M176.986 30.9867C183.836 32.0274 184.216 44.9954 190.206 48.7196C193.616 50.8418 200.246 50.8316 214.516 40.4551L219.006 45.0159C216.676 47.0463 212.366 49.393 206.876 51.9539C203.446 53.5456 194.596 57.5146 187.986 52.5559C187.986 52.5559 183.406 50.1378 173.776 32.4457L174.256 31.956C174.966 31.2213 175.976 30.8336 176.976 30.9867C176.966 30.9867 176.976 30.9867 176.986 30.9867Z" fill="#FFD16D"/>
<path d="M245.386 60.81L244.836 60.861C242.806 61.0549 241.076 62.4629 240.426 64.4423L240.366 64.6361C239.536 67.1971 236.936 68.6969 234.356 68.1154L233.736 67.9725C231.996 67.5746 230.176 68.1256 228.936 69.4316C226.906 71.5538 223.556 71.5436 221.546 69.401L221.466 69.3193C220.276 68.0644 218.556 67.4828 216.866 67.7889L216.306 67.8909C213.626 68.3705 211.046 66.6359 210.416 63.9423L210.366 63.7383C209.916 61.8099 208.426 60.2998 206.536 59.8509L206.336 59.7999C203.686 59.1673 201.976 56.5451 202.436 53.8005L202.526 53.2393C202.816 51.515 202.246 49.7601 201.006 48.5561L200.926 48.4847C198.826 46.4441 198.796 43.0261 200.866 40.9447C202.136 39.6693 202.666 37.8123 202.276 36.037L202.136 35.4044C201.546 32.772 203.006 30.1193 205.516 29.2622L205.706 29.1908C207.646 28.5276 209.006 26.7624 209.196 24.681L209.246 24.1097C209.466 21.5895 211.416 19.5897 213.886 19.355L214.436 19.304C216.466 19.1102 218.196 17.7021 218.846 15.7228L218.906 15.5289C219.736 12.9679 222.336 11.4681 224.916 12.0497L225.536 12.1925C227.276 12.5904 229.096 12.0395 230.336 10.7335C232.366 8.61124 235.716 8.62144 237.726 10.7641L237.806 10.8457C238.996 12.1007 240.716 12.6823 242.406 12.3762L242.966 12.2741C245.646 11.7946 248.226 13.5291 248.856 16.2227L248.906 16.4268C249.356 18.3551 250.846 19.8652 252.736 20.3141L252.936 20.3651C255.586 20.9977 257.296 23.6199 256.836 26.3645L256.746 26.9257C256.456 28.65 257.026 30.4049 258.266 31.6089L258.346 31.6803C260.446 33.7209 260.476 37.1389 258.406 39.2204C257.136 40.4957 256.606 42.3527 256.996 44.128L257.136 44.7606C257.726 47.393 256.266 50.0458 253.756 50.9028L253.566 50.9743C251.626 51.6375 250.266 53.4026 250.076 55.484L250.026 56.0554C249.816 58.5653 247.856 60.5651 245.386 60.81Z" fill="#FFB107"/>
<path d="M248.096 58.5347L251.816 58.249C252.456 58.198 253.066 57.8817 253.516 57.3614L253.586 57.2797C254.746 55.9431 256.746 56.1472 257.326 57.6573C257.606 58.3919 258.266 58.8714 259.056 58.9224C260.686 59.0245 261.476 60.8508 260.526 62.3404L260.466 62.4323C260.096 63.0036 259.966 63.677 260.106 64.2994L260.276 65.0545C260.606 66.4829 259.466 68.0031 257.986 68.1154L257.206 68.1766C256.566 68.2276 255.956 68.5439 255.506 69.0642L255.436 69.1459C254.276 70.4825 252.276 70.2784 251.696 68.7684C251.416 68.0337 250.756 67.5542 249.966 67.5032C248.336 67.4012 247.546 65.5748 248.496 64.0852L248.556 63.9933C248.926 63.422 249.056 62.7486 248.916 62.1262L248.096 58.5347Z" fill="#FFB107"/>
<path d="M249.966 56.0144C249.926 58.2285 252.026 58.4529 252.026 58.4529L249.176 62.3811C249.176 62.3811 248.046 60.4527 246.596 60.5445L249.966 56.0144Z" fill="#FFB107"/>
<path d="M252.796 39.6897C253.796 42.9955 250.826 44.6586 250.826 44.6586" stroke="#252729" stroke-width="1.0002" stroke-miterlimit="10" stroke-linecap="round" stroke-linejoin="round"/>
<path d="M228.126 33.0271C219.226 28.0582 212.746 31.8333 209.106 38.6286C205.466 45.4238 206.026 52.6781 214.926 57.6368C223.826 62.6057 231.406 59.9019 235.046 53.0965C238.696 46.3114 237.026 37.996 228.126 33.0271Z" fill="white"/>
<path d="M249.666 27.14C245.506 21.0998 239.566 20.9875 234.736 24.4566C229.896 27.9256 227.996 33.6597 232.156 39.6999C236.316 45.7401 241.946 45.0463 246.776 41.5773C251.616 38.1082 253.826 33.17 249.666 27.14Z" fill="white"/>
<path d="M221.786 47.8929L219.976 46.0564" stroke="#252729" stroke-width="3.0005" stroke-miterlimit="10" stroke-linecap="round" stroke-linejoin="round"/>
<path d="M238.876 35.0474L237.966 34.1292" stroke="#252729" stroke-width="3.0005" stroke-miterlimit="10" stroke-linecap="round" stroke-linejoin="round"/>
<path d="M254.856 63.4934C251.696 60.0141 250.896 54.9738 252.816 50.8212C254.506 47.1583 258.076 44.7096 262.126 44.3831" stroke="#252729" stroke-miterlimit="10" stroke-linecap="round"/>
<path d="M254.856 63.4936C250.756 62.0753 246.236 62.9936 243.046 65.9015C238.446 70.0949 239.146 76.1351 239.216 76.6351" stroke="#252729" stroke-miterlimit="10" stroke-linecap="round"/>
<path d="M254.856 63.4934C254.856 63.4934 249.786 66.187 248.346 70.911C247.216 74.6249 248.396 77.0634 250.756 78.1042C253.106 79.1449 255.716 77.3797 256.546 73.2985C257.556 68.4623 254.856 63.4934 254.856 63.4934Z" stroke="#252729" stroke-miterlimit="10" stroke-linecap="round"/>
<path d="M260.276 53.9434C255.956 57.545 254.866 63.4934 254.866 63.4934C254.866 63.4934 260.766 64.3811 265.586 61.9528C269.946 59.7489 270.496 55.2493 268.636 53.0761C267.356 51.5967 264.426 50.4743 260.276 53.9434Z" stroke="#252729" stroke-miterlimit="10" stroke-linecap="round"/>
</svg>
